<svg xmlns="http://www.w3.org/2000/svg" xmlns:xlink="http://www.w3.org/1999/xlink" xmlns:lucid="lucid" width="1073.95" height="512.6"><g transform="translate(-140 -127.4)" lucid:page-tab-id="0_0"><path d="M553.95 201h200v120h-200z" stroke="#000" stroke-width="2" fill="#fff"/><use xlink:href="#a" transform="matrix(1,0,0,1,558.95,206) translate(10.049999999999997 37)"/><use xlink:href="#b" transform="matrix(1,0,0,1,558.95,206) translate(149.95 37)"/><use xlink:href="#c" transform="matrix(1,0,0,1,558.95,206) translate(10.099999999999994 58.6)"/><use xlink:href="#d" transform="matrix(1,0,0,1,558.95,206) translate(36.05 58.6)"/><use xlink:href="#e" transform="matrix(1,0,0,1,558.95,206) translate(108.95 58.6)"/><use xlink:href="#f" transform="matrix(1,0,0,1,558.95,206) translate(154.9 58.6)"/><use xlink:href="#g" transform="matrix(1,0,0,1,558.95,206) translate(68.5 80.20000000000002)"/><path d="M1193.95 473c0 15.46-44.77 28-100 28s-100-12.54-100-28V249c0-15.46 44.77-28 100-28s100 12.54 100 28z" stroke="#000" stroke-width="2" fill="#fff"/><path d="M1193.95 249c0 15.46-44.77 28-100 28s-100-12.54-100-28" stroke="#000" stroke-width="2" fill="none"/><use xlink:href="#h" transform="matrix(1,0,0,1,998.95,282) translate(13.125 78.19999999999999)"/><use xlink:href="#c" transform="matrix(1,0,0,1,998.95,282) translate(97.025 78.19999999999999)"/><use xlink:href="#i" transform="matrix(1,0,0,1,998.95,282) translate(122.97500000000001 78.19999999999999)"/><use xlink:href="#e" transform="matrix(1,0,0,1,998.95,282) translate(18.900000000000006 99.8)"/><use xlink:href="#j" transform="matrix(1,0,0,1,998.95,282) translate(64.85000000000001 99.8)"/><use xlink:href="#k" transform="matrix(1,0,0,1,998.95,282) translate(127.85000000000001 99.8)"/><use xlink:href="#l" transform="matrix(1,0,0,1,998.95,282) translate(1.8999999999999915 121.4)"/><use xlink:href="#m" transform="matrix(1,0,0,1,998.95,282) translate(43.24999999999999 121.4)"/><use xlink:href="#n" transform="matrix(1,0,0,1,998.95,282) translate(158.10000000000002 121.4)"/><use xlink:href="#o" transform="matrix(1,0,0,1,998.95,282) translate(75.5 143)"/><path d="M554 480h200v140H554z" stroke="#000" stroke-width="2" fill="#fff"/><use xlink:href="#p" transform="matrix(1,0,0,1,559,485) translate(4.099999999999994 57.8)"/><use xlink:href="#c" transform="matrix(1,0,0,1,559,485) translate(74.05 57.8)"/><use xlink:href="#q" transform="matrix(1,0,0,1,559,485) translate(100 57.8)"/><use xlink:href="#r" transform="matrix(1,0,0,1,559,485) translate(28.700000000000003 79.4)"/><use xlink:href="#l" transform="matrix(1,0,0,1,559,485) translate(76.95 79.4)"/><use xlink:href="#s" transform="matrix(1,0,0,1,559,485) translate(118.3 79.4)"/><path d="M874.95 360h99.76v2H872.96v-29.4h2zm0-70.6h-2V262h-118v-2h120zM754.95 262h-1v-2h1zM989.7 361l-14.25 4.64v-9.28z"/><path d="M992.95 361l-18.5 6v-12zm-16.5 3.26l10.03-3.26-10.03-3.26z"/><use xlink:href="#t" transform="matrix(1,0,0,1,780.0500000000001,289.4) translate(10.954999999999998 14.4)"/><use xlink:href="#u" transform="matrix(1,0,0,1,780.0500000000001,289.4) translate(58.905 14.4)"/><use xlink:href="#v" transform="matrix(1,0,0,1,780.0500000000001,289.4) translate(98.905 14.4)"/><use xlink:href="#w" transform="matrix(1,0,0,1,780.0500000000001,289.4) translate(0.0049999999999954525 36)"/><use xlink:href="#x" transform="matrix(1,0,0,1,780.0500000000001,289.4) translate(47.955 36)"/><use xlink:href="#y" transform="matrix(1,0,0,1,780.0500000000001,289.4) translate(82.955 36)"/><path d="M1094.95 220h-2v-59h-32.5v-2h34.5zm-387.5-59h-52.5v20.76h-2V159h54.5zM1094.95 221.02l-1-.02h-1v-1h2zM653.95 196.76l-4.64-14.26h9.3z"/><path d="M653.95 200l-6-18.5h12zm-3.26-16.5l3.25 10.03 3.26-10.03z"/><g><use xlink:href="#z" transform="matrix(1,0,0,1,707.4499731596053,138.4) translate(100.07999999999998 14.4)"/><use xlink:href="#x" transform="matrix(1,0,0,1,707.4499731596053,138.4) translate(172.98 14.4)"/><use xlink:href="#A" transform="matrix(1,0,0,1,707.4499731596053,138.4) translate(207.98 14.4)"/><use xlink:href="#B" transform="matrix(1,0,0,1,707.4499731596053,138.4) translate(0.0049999999999954525 36)"/><use xlink:href="#x" transform="matrix(1,0,0,1,707.4499731596053,138.4) translate(67.905 36)"/><use xlink:href="#C" transform="matrix(1,0,0,1,707.4499731596053,138.4) translate(102.905 36)"/><use xlink:href="#D" transform="matrix(1,0,0,1,707.4499731596053,138.4) translate(152.85500000000002 36)"/><use xlink:href="#E" transform="matrix(1,0,0,1,707.4499731596053,138.4) translate(186.75500000000002 36)"/><use xlink:href="#F" transform="matrix(1,0,0,1,707.4499731596053,138.4) translate(259.105 36)"/><use xlink:href="#G" transform="matrix(1,0,0,1,707.4499731596053,138.4) translate(293.105 36)"/></g><path d="M861.55 551h-88.3v-2h88.3zm233.4 0h-59.55v-2h57.55v-47h2zM1093.95 501h1v1h-2v-1.02zM772.5 554.64L758.24 550l14.26-4.64z"/><path d="M773.5 556l-18.5-6 18.5-6zm-12.03-6l10.03 3.26v-6.52z"/><g><use xlink:href="#z" transform="matrix(1,0,0,1,861.5499731596053,528.4) translate(10.504999999999995 14.4)"/><use xlink:href="#x" transform="matrix(1,0,0,1,861.5499731596053,528.4) translate(83.405 14.4)"/><use xlink:href="#A" transform="matrix(1,0,0,1,861.5499731596053,528.4) translate(118.405 14.4)"/><use xlink:href="#H" transform="matrix(1,0,0,1,861.5499731596053,528.4) translate(0.0049999999999954525 36)"/><use xlink:href="#x" transform="matrix(1,0,0,1,861.5499731596053,528.4) translate(34.004999999999995 36)"/><use xlink:href="#y" transform="matrix(1,0,0,1,861.5499731596053,528.4) translate(69.005 36)"/></g><path d="M184 385c-13.25 0-24-10.75-24-24 0-10.6 6.5-19.55 16.58-22.83C176 307 216 301 232 313c8-18 48-12 48 6 24-6 48 18 32 48 16 24 0 54-32 42-8 15.6-40 15.6-48 0-16 12-48 6-48-24z" stroke="#000" stroke-width="2" fill="#fff"/><g><use xlink:href="#I" transform="matrix(1,0,0,1,165,306) translate(53.025 58.6)"/></g><path d="M318.72 262H241v41.92h-2V260h79.72zm216 0h-40.1v-2h40.1zM241 304.56l-.2.07-1.8.93v-1.64h2zM549.7 261l-14.25 4.64v-9.28z"/><path d="M552.95 261l-18.5 6v-12zm-16.5 3.26l10.03-3.26-10.03-3.26z"/><g><use xlink:href="#J" transform="matrix(1,0,0,1,318.71666666666675,239.4) translate(0.0049999999999954525 14.4)"/><use xlink:href="#K" transform="matrix(1,0,0,1,318.71666666666675,239.4) translate(48.955 14.4)"/><use xlink:href="#L" transform="matrix(1,0,0,1,318.71666666666675,239.4) translate(106.955 14.4)"/><use xlink:href="#M" transform="matrix(1,0,0,1,318.71666666666675,239.4) translate(13.554999999999993 36)"/><use xlink:href="#u" transform="matrix(1,0,0,1,318.71666666666675,239.4) translate(62.504999999999995 36)"/><use xlink:href="#N" transform="matrix(1,0,0,1,318.71666666666675,239.4) translate(102.505 36)"/></g><path d="M367.68 404.53h-35.73v-2h35.73zm287.27 0h-45.52v-2h43.52V322h2zM654.95 322h-2v-1h2zM331.22 408.16l-14.27-4.63 14.27-4.64z"/><path d="M332.22 409.54l-18.5-6 18.5-6.02zm-12.03-6l10.02 3.25v-6.53z"/><path d="M655 479h-2v-74.47h-43.57v-2H655zm-323.05-74.47v-2h35.73v2zM655 480h-2v-1h2zM331.22 408.16l-14.27-4.63 14.27-4.64z"/><path d="M332.22 409.54l-18.5-6 18.5-6.02zm-12.03-6l10.02 3.25v-6.53z"/><g><use xlink:href="#J" transform="matrix(1,0,0,1,367.6790994196741,392.72853707874106) translate(0 14.4)"/><use xlink:href="#O" transform="matrix(1,0,0,1,367.6790994196741,392.72853707874106) translate(48.95 14.4)"/><use xlink:href="#P" transform="matrix(1,0,0,1,367.6790994196741,392.72853707874106) translate(86.9 14.4)"/><use xlink:href="#Q" transform="matrix(1,0,0,1,367.6790994196741,392.72853707874106) translate(120.9 14.4)"/></g><defs><path d="M30 0v-248h33v221h125V0H30" id="R"/><path d="M141-36C126-15 110 5 73 4 37 3 15-17 15-53c-1-64 63-63 125-63 3-35-9-54-41-54-24 1-41 7-42 31l-33-3c5-37 33-52 76-52 45 0 72 20 72 64v82c-1 20 7 32 28 27v20c-31 9-61-2-59-35zM48-53c0 20 12 33 32 33 41-3 63-29 60-74-43 2-92-5-92 41" id="S"/><path d="M210-169c-67 3-38 105-44 169h-31v-121c0-29-5-50-35-48C34-165 62-65 56 0H25l-1-190h30c1 10-1 24 2 32 10-44 99-50 107 0 11-21 27-35 58-36 85-2 47 119 55 194h-31v-121c0-29-5-49-35-48" id="T"/><path d="M115-194c53 0 69 39 70 98 0 66-23 100-70 100C84 3 66-7 56-30L54 0H23l1-261h32v101c10-23 28-34 59-34zm-8 174c40 0 45-34 45-75 0-40-5-75-45-74-42 0-51 32-51 76 0 43 10 73 51 73" id="U"/><path d="M85-194c31 0 48 13 60 33l-1-100h32l1 261h-30c-2-10 0-23-3-31C134-8 116 4 85 4 32 4 16-35 15-94c0-66 23-100 70-100zm9 24c-40 0-46 34-46 75 0 40 6 74 45 74 42 0 51-32 51-76 0-42-9-74-50-73" id="V"/><path d="M0 4l72-265h28L28 4H0" id="W"/><path d="M30 0v-248h187v28H63v79h144v27H63v87h162V0H30" id="X"/><path d="M141 0L90-78 38 0H4l68-98-65-92h35l48 74 47-74h35l-64 92 68 98h-35" id="Y"/><path d="M115-194c55 1 70 41 70 98S169 2 115 4C84 4 66-9 55-30l1 105H24l-1-265h31l2 30c10-21 28-34 59-34zm-8 174c40 0 45-34 45-75s-6-73-45-74c-42 0-51 32-51 76 0 43 10 73 51 73" id="Z"/><path d="M114-163C36-179 61-72 57 0H25l-1-190h30c1 12-1 29 2 39 6-27 23-49 58-41v29" id="aa"/><path d="M100-194c63 0 86 42 84 106H49c0 40 14 67 53 68 26 1 43-12 49-29l28 8c-11 28-37 45-77 45C44 4 14-33 15-96c1-61 26-98 85-98zm52 81c6-60-76-77-97-28-3 7-6 17-6 28h103" id="ab"/><path d="M135-143c-3-34-86-38-87 0 15 53 115 12 119 90S17 21 10-45l28-5c4 36 97 45 98 0-10-56-113-15-118-90-4-57 82-63 122-42 12 7 21 19 24 35" id="ac"/><g id="a"><use transform="matrix(0.05,0,0,0.05,0,0)" xlink:href="#R"/><use transform="matrix(0.05,0,0,0.05,10,0)" xlink:href="#S"/><use transform="matrix(0.05,0,0,0.05,20,0)" xlink:href="#T"/><use transform="matrix(0.05,0,0,0.05,34.95,0)" xlink:href="#U"/><use transform="matrix(0.05,0,0,0.05,44.95,0)" xlink:href="#V"/><use transform="matrix(0.05,0,0,0.05,54.95,0)" xlink:href="#S"/><use transform="matrix(0.05,0,0,0.05,64.95,0)" xlink:href="#W"/><use transform="matrix(0.05,0,0,0.05,69.95,0)" xlink:href="#X"/><use transform="matrix(0.05,0,0,0.05,81.95,0)" xlink:href="#Y"/><use transform="matrix(0.05,0,0,0.05,90.95,0)" xlink:href="#Z"/><use transform="matrix(0.05,0,0,0.05,100.95,0)" xlink:href="#aa"/><use transform="matrix(0.05,0,0,0.05,106.9,0)" xlink:href="#ab"/><use transform="matrix(0.05,0,0,0.05,116.9,0)" xlink:href="#ac"/><use transform="matrix(0.05,0,0,0.05,125.9,0)" xlink:href="#ac"/></g><g id="b"><use transform="matrix(0.05,0,0,0.05,0,0)" xlink:href="#S"/><use transform="matrix(0.05,0,0,0.05,10,0)" xlink:href="#Z"/><use transform="matrix(0.05,0,0,0.05,20,0)" xlink:href="#Z"/></g><path d="M101-234c-31-9-42 10-38 44h38v23H63V0H32v-167H5v-23h27c-7-52 17-82 69-68v24" id="ad"/><path d="M100-194c62-1 85 37 85 99 1 63-27 99-86 99S16-35 15-95c0-66 28-99 85-99zM99-20c44 1 53-31 53-75 0-43-8-75-51-75s-53 32-53 75 10 74 51 75" id="ae"/><g id="c"><use transform="matrix(0.05,0,0,0.05,0,0)" xlink:href="#ad"/><use transform="matrix(0.05,0,0,0.05,5,0)" xlink:href="#ae"/><use transform="matrix(0.05,0,0,0.05,15,0)" xlink:href="#aa"/></g><path d="M106-169C34-169 62-67 57 0H25v-261h32l-1 103c12-21 28-36 61-36 89 0 53 116 60 194h-32v-121c2-32-8-49-39-48" id="af"/><path d="M117-194c89-4 53 116 60 194h-32v-121c0-31-8-49-39-48C34-167 62-67 57 0H25l-1-190h30c1 10-1 24 2 32 11-22 29-35 61-36" id="ag"/><path d="M24 0v-261h32V0H24" id="ah"/><path d="M24-231v-30h32v30H24zM24 0v-190h32V0H24" id="ai"/><path d="M177-190C167-65 218 103 67 71c-23-6-38-20-44-43l32-5c15 47 100 32 89-28v-30C133-14 115 1 83 1 29 1 15-40 15-95c0-56 16-97 71-98 29-1 48 16 59 35 1-10 0-23 2-32h30zM94-22c36 0 50-32 50-73 0-42-14-75-50-75-39 0-46 34-46 75s6 73 46 73" id="aj"/><g id="d"><use transform="matrix(0.05,0,0,0.05,0,0)" xlink:href="#af"/><use transform="matrix(0.05,0,0,0.05,10,0)" xlink:href="#S"/><use transform="matrix(0.05,0,0,0.05,20,0)" xlink:href="#ag"/><use transform="matrix(0.05,0,0,0.05,30,0)" xlink:href="#V"/><use transform="matrix(0.05,0,0,0.05,40,0)" xlink:href="#ah"/><use transform="matrix(0.05,0,0,0.05,43.95,0)" xlink:href="#ai"/><use transform="matrix(0.05,0,0,0.05,47.900000000000006,0)" xlink:href="#ag"/><use transform="matrix(0.05,0,0,0.05,57.900000000000006,0)" xlink:href="#aj"/></g><path d="M96-169c-40 0-48 33-48 73s9 75 48 75c24 0 41-14 43-38l32 2c-6 37-31 61-74 61-59 0-76-41-82-99-10-93 101-131 147-64 4 7 5 14 7 22l-32 3c-4-21-16-35-41-35" id="ak"/><path d="M143 0L79-87 56-68V0H24v-261h32v163l83-92h37l-77 82L181 0h-38" id="al"/><g id="e"><use transform="matrix(0.05,0,0,0.05,0,0)" xlink:href="#ac"/><use transform="matrix(0.05,0,0,0.05,9,0)" xlink:href="#ah"/><use transform="matrix(0.05,0,0,0.05,12.949999999999998,0)" xlink:href="#S"/><use transform="matrix(0.05,0,0,0.05,22.95,0)" xlink:href="#ak"/><use transform="matrix(0.05,0,0,0.05,31.950000000000003,0)" xlink:href="#al"/></g><path d="M59-47c-2 24 18 29 38 22v24C64 9 27 4 27-40v-127H5v-23h24l9-43h21v43h35v23H59v120" id="am"/><g id="f"><use transform="matrix(0.05,0,0,0.05,0,0)" xlink:href="#U"/><use transform="matrix(0.05,0,0,0.05,10,0)" xlink:href="#ae"/><use transform="matrix(0.05,0,0,0.05,20,0)" xlink:href="#am"/></g><path d="M108 0H70L1-190h34L89-25l56-165h34" id="an"/><g id="g"><use transform="matrix(0.05,0,0,0.05,0,0)" xlink:href="#ab"/><use transform="matrix(0.05,0,0,0.05,10,0)" xlink:href="#an"/><use transform="matrix(0.05,0,0,0.05,19,0)" xlink:href="#ab"/><use transform="matrix(0.05,0,0,0.05,29,0)" xlink:href="#ag"/><use transform="matrix(0.05,0,0,0.05,39,0)" xlink:href="#am"/><use transform="matrix(0.05,0,0,0.05,44,0)" xlink:href="#ac"/></g><path d="M240 0l2-218c-23 76-54 145-80 218h-23L58-218 59 0H30v-248h44l77 211c21-75 51-140 76-211h43V0h-30" id="ao"/><g id="h"><use transform="matrix(0.05,0,0,0.05,0,0)" xlink:href="#ao"/><use transform="matrix(0.05,0,0,0.05,14.950000000000001,0)" xlink:href="#ae"/><use transform="matrix(0.05,0,0,0.05,24.950000000000003,0)" xlink:href="#ag"/><use transform="matrix(0.05,0,0,0.05,34.95,0)" xlink:href="#aj"/><use transform="matrix(0.05,0,0,0.05,44.95,0)" xlink:href="#ae"/><use transform="matrix(0.05,0,0,0.05,54.95,0)" xlink:href="#ah"/><use transform="matrix(0.05,0,0,0.05,58.900000000000006,0)" xlink:href="#S"/><use transform="matrix(0.05,0,0,0.05,68.9,0)" xlink:href="#U"/></g><g id="i"><use transform="matrix(0.05,0,0,0.05,0,0)" xlink:href="#ac"/><use transform="matrix(0.05,0,0,0.05,9,0)" xlink:href="#am"/><use transform="matrix(0.05,0,0,0.05,14,0)" xlink:href="#ae"/><use transform="matrix(0.05,0,0,0.05,24,0)" xlink:href="#aa"/><use transform="matrix(0.05,0,0,0.05,29.950000000000003,0)" xlink:href="#ai"/><use transform="matrix(0.05,0,0,0.05,33.9,0)" xlink:href="#ag"/><use transform="matrix(0.05,0,0,0.05,43.9,0)" xlink:href="#aj"/></g><path d="M68-38c1 34 0 65-14 84H32c9-13 17-26 17-46H33v-38h35" id="ap"/><g id="j"><use transform="matrix(0.05,0,0,0.05,0,0)" xlink:href="#am"/><use transform="matrix(0.05,0,0,0.05,5,0)" xlink:href="#ae"/><use transform="matrix(0.05,0,0,0.05,15,0)" xlink:href="#al"/><use transform="matrix(0.05,0,0,0.05,24,0)" xlink:href="#ab"/><use transform="matrix(0.05,0,0,0.05,34,0)" xlink:href="#ag"/><use transform="matrix(0.05,0,0,0.05,44,0)" xlink:href="#ac"/><use transform="matrix(0.05,0,0,0.05,53,0)" xlink:href="#ap"/></g><path d="M109-170H84l-4-78h32zm-65 0H19l-4-78h33" id="aq"/><path d="M179-190L93 31C79 59 56 82 12 73V49c39 6 53-20 64-50L1-190h34L92-34l54-156h33" id="ar"/><g id="k"><use transform="matrix(0.05,0,0,0.05,0,0)" xlink:href="#aq"/><use transform="matrix(0.05,0,0,0.05,6.3500000000000005,0)" xlink:href="#V"/><use transform="matrix(0.05,0,0,0.05,16.35,0)" xlink:href="#S"/><use transform="matrix(0.05,0,0,0.05,26.35,0)" xlink:href="#ai"/><use transform="matrix(0.05,0,0,0.05,30.3,0)" xlink:href="#ah"/><use transform="matrix(0.05,0,0,0.05,34.25,0)" xlink:href="#ar"/></g><path d="M84 4C-5 8 30-112 23-190h32v120c0 31 7 50 39 49 72-2 45-101 50-169h31l1 190h-30c-1-10 1-25-2-33-11 22-28 36-60 37" id="as"/><g id="l"><use transform="matrix(0.05,0,0,0.05,0,0)" xlink:href="#Z"/><use transform="matrix(0.05,0,0,0.05,10,0)" xlink:href="#as"/><use transform="matrix(0.05,0,0,0.05,20,0)" xlink:href="#ag"/><use transform="matrix(0.05,0,0,0.05,30,0)" xlink:href="#aq"/></g><g id="m"><use transform="matrix(0.05,0,0,0.05,0,0)" xlink:href="#ac"/><use transform="matrix(0.05,0,0,0.05,9,0)" xlink:href="#as"/><use transform="matrix(0.05,0,0,0.05,19,0)" xlink:href="#U"/><use transform="matrix(0.05,0,0,0.05,29,0)" xlink:href="#ac"/><use transform="matrix(0.05,0,0,0.05,38,0)" xlink:href="#ak"/><use transform="matrix(0.05,0,0,0.05,47,0)" xlink:href="#aa"/><use transform="matrix(0.05,0,0,0.05,52.95,0)" xlink:href="#ai"/><use transform="matrix(0.05,0,0,0.05,56.900000000000006,0)" xlink:href="#Z"/><use transform="matrix(0.05,0,0,0.05,66.9,0)" xlink:href="#am"/><use transform="matrix(0.05,0,0,0.05,71.9,0)" xlink:href="#ai"/><use transform="matrix(0.05,0,0,0.05,75.85000000000001,0)" xlink:href="#ae"/><use transform="matrix(0.05,0,0,0.05,85.85000000000001,0)" xlink:href="#ag"/><use transform="matrix(0.05,0,0,0.05,95.85000000000001,0)" xlink:href="#ac"/><use transform="matrix(0.05,0,0,0.05,104.85000000000001,0)" xlink:href="#ap"/></g><g id="n"><use transform="matrix(0.05,0,0,0.05,0,0)" xlink:href="#S"/><use transform="matrix(0.05,0,0,0.05,10,0)" xlink:href="#ag"/><use transform="matrix(0.05,0,0,0.05,20,0)" xlink:href="#V"/></g><g id="o"><use transform="matrix(0.05,0,0,0.05,0,0)" xlink:href="#Z"/><use transform="matrix(0.05,0,0,0.05,10,0)" xlink:href="#as"/><use transform="matrix(0.05,0,0,0.05,20,0)" xlink:href="#ag"/><use transform="matrix(0.05,0,0,0.05,30,0)" xlink:href="#ac"/></g><g id="p"><use transform="matrix(0.05,0,0,0.05,0,0)" xlink:href="#R"/><use transform="matrix(0.05,0,0,0.05,10,0)" xlink:href="#S"/><use transform="matrix(0.05,0,0,0.05,20,0)" xlink:href="#T"/><use transform="matrix(0.05,0,0,0.05,34.95,0)" xlink:href="#U"/><use transform="matrix(0.05,0,0,0.05,44.95,0)" xlink:href="#V"/><use transform="matrix(0.05,0,0,0.05,54.95,0)" xlink:href="#S"/></g><g id="q"><use transform="matrix(0.05,0,0,0.05,0,0)" xlink:href="#ac"/><use transform="matrix(0.05,0,0,0.05,9,0)" xlink:href="#ak"/><use transform="matrix(0.05,0,0,0.05,18,0)" xlink:href="#af"/><use transform="matrix(0.05,0,0,0.05,28,0)" xlink:href="#ab"/><use transform="matrix(0.05,0,0,0.05,38,0)" xlink:href="#V"/><use transform="matrix(0.05,0,0,0.05,48,0)" xlink:href="#as"/><use transform="matrix(0.05,0,0,0.05,58,0)" xlink:href="#ah"/><use transform="matrix(0.05,0,0,0.05,61.95,0)" xlink:href="#ai"/><use transform="matrix(0.05,0,0,0.05,65.9,0)" xlink:href="#ag"/><use transform="matrix(0.05,0,0,0.05,75.9,0)" xlink:href="#aj"/></g><g id="r"><use transform="matrix(0.05,0,0,0.05,0,0)" xlink:href="#aq"/><use transform="matrix(0.05,0,0,0.05,6.3500000000000005,0)" xlink:href="#V"/><use transform="matrix(0.05,0,0,0.05,16.35,0)" xlink:href="#S"/><use transform="matrix(0.05,0,0,0.05,26.35,0)" xlink:href="#ai"/><use transform="matrix(0.05,0,0,0.05,30.3,0)" xlink:href="#ah"/><use transform="matrix(0.05,0,0,0.05,34.25,0)" xlink:href="#ar"/></g><g id="s"><use transform="matrix(0.05,0,0,0.05,0,0)" xlink:href="#Z"/><use transform="matrix(0.05,0,0,0.05,10,0)" xlink:href="#ae"/><use transform="matrix(0.05,0,0,0.05,20,0)" xlink:href="#ac"/><use transform="matrix(0.05,0,0,0.05,29,0)" xlink:href="#am"/><use transform="matrix(0.05,0,0,0.05,34,0)" xlink:href="#ac"/></g><path d="M185-189c-5-48-123-54-124 2 14 75 158 14 163 119 3 78-121 87-175 55-17-10-28-26-33-46l33-7c5 56 141 63 141-1 0-78-155-14-162-118-5-82 145-84 179-34 5 7 8 16 11 25" id="at"/><g id="t"><use transform="matrix(0.05,0,0,0.05,0,0)" xlink:href="#at"/><use transform="matrix(0.05,0,0,0.05,12,0)" xlink:href="#am"/><use transform="matrix(0.05,0,0,0.05,17,0)" xlink:href="#ae"/><use transform="matrix(0.05,0,0,0.05,27,0)" xlink:href="#aa"/><use transform="matrix(0.05,0,0,0.05,32.95,0)" xlink:href="#ab"/></g><g id="u"><use transform="matrix(0.05,0,0,0.05,0,0)" xlink:href="#S"/><use transform="matrix(0.05,0,0,0.05,10,0)" xlink:href="#as"/><use transform="matrix(0.05,0,0,0.05,20,0)" xlink:href="#am"/><use transform="matrix(0.05,0,0,0.05,25,0)" xlink:href="#af"/></g><g id="v"><use transform="matrix(0.05,0,0,0.05,0,0)" xlink:href="#ab"/><use transform="matrix(0.05,0,0,0.05,10,0)" xlink:href="#ag"/><use transform="matrix(0.05,0,0,0.05,20,0)" xlink:href="#V"/><use transform="matrix(0.05,0,0,0.05,30,0)" xlink:href="#Z"/><use transform="matrix(0.05,0,0,0.05,40,0)" xlink:href="#ae"/><use transform="matrix(0.05,0,0,0.05,50,0)" xlink:href="#ai"/><use transform="matrix(0.05,0,0,0.05,53.95,0)" xlink:href="#ag"/><use transform="matrix(0.05,0,0,0.05,63.95,0)" xlink:href="#am"/><use transform="matrix(0.05,0,0,0.05,68.95,0)" xlink:href="#ac"/></g><g id="w"><use transform="matrix(0.05,0,0,0.05,0,0)" xlink:href="#at"/><use transform="matrix(0.05,0,0,0.05,12,0)" xlink:href="#am"/><use transform="matrix(0.05,0,0,0.05,17,0)" xlink:href="#ae"/><use transform="matrix(0.05,0,0,0.05,27,0)" xlink:href="#aa"/><use transform="matrix(0.05,0,0,0.05,32.95,0)" xlink:href="#ab"/></g><g id="x"><use transform="matrix(0.05,0,0,0.05,0,0)" xlink:href="#Z"/><use transform="matrix(0.05,0,0,0.05,10,0)" xlink:href="#as"/><use transform="matrix(0.05,0,0,0.05,20,0)" xlink:href="#ag"/></g><g id="y"><use transform="matrix(0.05,0,0,0.05,0,0)" xlink:href="#ac"/><use transform="matrix(0.05,0,0,0.05,9,0)" xlink:href="#as"/><use transform="matrix(0.05,0,0,0.05,19,0)" xlink:href="#U"/><use transform="matrix(0.05,0,0,0.05,29,0)" xlink:href="#ac"/><use transform="matrix(0.05,0,0,0.05,38,0)" xlink:href="#ak"/><use transform="matrix(0.05,0,0,0.05,47,0)" xlink:href="#aa"/><use transform="matrix(0.05,0,0,0.05,52.95,0)" xlink:href="#ai"/><use transform="matrix(0.05,0,0,0.05,56.900000000000006,0)" xlink:href="#Z"/><use transform="matrix(0.05,0,0,0.05,66.9,0)" xlink:href="#am"/><use transform="matrix(0.05,0,0,0.05,71.9,0)" xlink:href="#ai"/><use transform="matrix(0.05,0,0,0.05,75.85000000000001,0)" xlink:href="#ae"/><use transform="matrix(0.05,0,0,0.05,85.85000000000001,0)" xlink:href="#ag"/><use transform="matrix(0.05,0,0,0.05,95.85000000000001,0)" xlink:href="#ac"/></g><path d="M233-177c-1 41-23 64-60 70L243 0h-38l-65-103H63V0H30v-248c88 3 205-21 203 71zM63-129c60-2 137 13 137-47 0-61-80-42-137-45v92" id="au"/><g id="z"><use transform="matrix(0.05,0,0,0.05,0,0)" xlink:href="#au"/><use transform="matrix(0.05,0,0,0.05,12.950000000000001,0)" xlink:href="#S"/><use transform="matrix(0.05,0,0,0.05,22.950000000000003,0)" xlink:href="#ag"/><use transform="matrix(0.05,0,0,0.05,32.95,0)" xlink:href="#V"/><use transform="matrix(0.05,0,0,0.05,42.95,0)" xlink:href="#ae"/><use transform="matrix(0.05,0,0,0.05,52.95,0)" xlink:href="#T"/></g><path d="M145-31C134-9 116 4 85 4 32 4 16-35 15-94c0-59 17-99 70-100 32-1 48 14 60 33 0-11-1-24 2-32h30l-1 268h-32zM93-21c41 0 51-33 51-76s-8-73-50-73c-40 0-46 35-46 75s5 74 45 74" id="av"/><g id="A"><use transform="matrix(0.05,0,0,0.05,0,0)" xlink:href="#av"/><use transform="matrix(0.05,0,0,0.05,10,0)" xlink:href="#as"/><use transform="matrix(0.05,0,0,0.05,20,0)" xlink:href="#ab"/><use transform="matrix(0.05,0,0,0.05,30,0)" xlink:href="#aa"/><use transform="matrix(0.05,0,0,0.05,35.95,0)" xlink:href="#ar"/></g><g id="B"><use transform="matrix(0.05,0,0,0.05,0,0)" xlink:href="#at"/><use transform="matrix(0.05,0,0,0.05,12,0)" xlink:href="#Z"/><use transform="matrix(0.05,0,0,0.05,22,0)" xlink:href="#ab"/><use transform="matrix(0.05,0,0,0.05,32,0)" xlink:href="#ak"/><use transform="matrix(0.05,0,0,0.05,41,0)" xlink:href="#ai"/><use transform="matrix(0.05,0,0,0.05,44.95,0)" xlink:href="#ad"/><use transform="matrix(0.05,0,0,0.05,49.95,0)" xlink:href="#ai"/><use transform="matrix(0.05,0,0,0.05,53.900000000000006,0)" xlink:href="#ak"/></g><g id="C"><use transform="matrix(0.05,0,0,0.05,0,0)" xlink:href="#av"/><use transform="matrix(0.05,0,0,0.05,10,0)" xlink:href="#as"/><use transform="matrix(0.05,0,0,0.05,20,0)" xlink:href="#ab"/><use transform="matrix(0.05,0,0,0.05,30,0)" xlink:href="#aa"/><use transform="matrix(0.05,0,0,0.05,35.95,0)" xlink:href="#ar"/></g><path d="M87 75C49 33 22-17 22-94c0-76 28-126 65-167h31c-38 41-64 92-64 168S80 34 118 75H87" id="aw"/><g id="D"><use transform="matrix(0.05,0,0,0.05,0,0)" xlink:href="#aw"/><use transform="matrix(0.05,0,0,0.05,5.95,0)" xlink:href="#an"/><use transform="matrix(0.05,0,0,0.05,14.949999999999998,0)" xlink:href="#ai"/><use transform="matrix(0.05,0,0,0.05,18.9,0)" xlink:href="#S"/></g><path d="M47-170H22l-4-78h33" id="ax"/><g id="E"><use transform="matrix(0.05,0,0,0.05,0,0)" xlink:href="#T"/><use transform="matrix(0.05,0,0,0.05,14.950000000000001,0)" xlink:href="#ae"/><use transform="matrix(0.05,0,0,0.05,24.950000000000003,0)" xlink:href="#ag"/><use transform="matrix(0.05,0,0,0.05,34.95,0)" xlink:href="#aj"/><use transform="matrix(0.05,0,0,0.05,44.95,0)" xlink:href="#ae"/><use transform="matrix(0.05,0,0,0.05,54.95,0)" xlink:href="#ax"/><use transform="matrix(0.05,0,0,0.05,58.35,0)" xlink:href="#ac"/></g><g id="F"><use transform="matrix(0.05,0,0,0.05,0,0)" xlink:href="#am"/><use transform="matrix(0.05,0,0,0.05,5,0)" xlink:href="#ab"/><use transform="matrix(0.05,0,0,0.05,15,0)" xlink:href="#Y"/><use transform="matrix(0.05,0,0,0.05,24,0)" xlink:href="#am"/></g><path d="M33-261c38 41 65 92 65 168S71 34 33 75H2C39 34 66-17 66-93S39-220 2-261h31" id="ay"/><g id="G"><use transform="matrix(0.05,0,0,0.05,0,0)" xlink:href="#ac"/><use transform="matrix(0.05,0,0,0.05,9,0)" xlink:href="#ab"/><use transform="matrix(0.05,0,0,0.05,19,0)" xlink:href="#S"/><use transform="matrix(0.05,0,0,0.05,29,0)" xlink:href="#aa"/><use transform="matrix(0.05,0,0,0.05,34.95,0)" xlink:href="#ak"/><use transform="matrix(0.05,0,0,0.05,43.95,0)" xlink:href="#af"/><use transform="matrix(0.05,0,0,0.05,53.95,0)" xlink:href="#ay"/></g><path d="M143 4C61 4 22-44 18-125c-5-107 100-154 193-111 17 8 29 25 37 43l-32 9c-13-25-37-40-76-40-61 0-88 39-88 99 0 61 29 100 91 101 35 0 62-11 79-27v-45h-74v-28h105v86C228-13 192 4 143 4" id="az"/><g id="H"><use transform="matrix(0.05,0,0,0.05,0,0)" xlink:href="#az"/><use transform="matrix(0.05,0,0,0.05,14,0)" xlink:href="#ab"/><use transform="matrix(0.05,0,0,0.05,24,0)" xlink:href="#am"/></g><g id="I"><use transform="matrix(0.05,0,0,0.05,0,0)" xlink:href="#at"/><use transform="matrix(0.05,0,0,0.05,12,0)" xlink:href="#ah"/><use transform="matrix(0.05,0,0,0.05,15.949999999999998,0)" xlink:href="#S"/><use transform="matrix(0.05,0,0,0.05,25.950000000000003,0)" xlink:href="#ak"/><use transform="matrix(0.05,0,0,0.05,34.95,0)" xlink:href="#al"/></g><g id="J"><use transform="matrix(0.05,0,0,0.05,0,0)" xlink:href="#at"/><use transform="matrix(0.05,0,0,0.05,12,0)" xlink:href="#ah"/><use transform="matrix(0.05,0,0,0.05,15.949999999999998,0)" xlink:href="#S"/><use transform="matrix(0.05,0,0,0.05,25.950000000000003,0)" xlink:href="#ak"/><use transform="matrix(0.05,0,0,0.05,34.95,0)" xlink:href="#al"/></g><g id="K"><use transform="matrix(0.05,0,0,0.05,0,0)" xlink:href="#ab"/><use transform="matrix(0.05,0,0,0.05,10,0)" xlink:href="#an"/><use transform="matrix(0.05,0,0,0.05,19,0)" xlink:href="#ab"/><use transform="matrix(0.05,0,0,0.05,29,0)" xlink:href="#ag"/><use transform="matrix(0.05,0,0,0.05,39,0)" xlink:href="#am"/><use transform="matrix(0.05,0,0,0.05,44,0)" xlink:href="#ac"/></g><g id="L"><use transform="matrix(0.05,0,0,0.05,0,0)" xlink:href="#ab"/><use transform="matrix(0.05,0,0,0.05,10,0)" xlink:href="#ag"/><use transform="matrix(0.05,0,0,0.05,20,0)" xlink:href="#V"/><use transform="matrix(0.05,0,0,0.05,30,0)" xlink:href="#Z"/><use transform="matrix(0.05,0,0,0.05,40,0)" xlink:href="#ae"/><use transform="matrix(0.05,0,0,0.05,50,0)" xlink:href="#ai"/><use transform="matrix(0.05,0,0,0.05,53.95,0)" xlink:href="#ag"/><use transform="matrix(0.05,0,0,0.05,63.95,0)" xlink:href="#am"/></g><g id="M"><use transform="matrix(0.05,0,0,0.05,0,0)" xlink:href="#at"/><use transform="matrix(0.05,0,0,0.05,12,0)" xlink:href="#ah"/><use transform="matrix(0.05,0,0,0.05,15.949999999999998,0)" xlink:href="#S"/><use transform="matrix(0.05,0,0,0.05,25.950000000000003,0)" xlink:href="#ak"/><use transform="matrix(0.05,0,0,0.05,34.95,0)" xlink:href="#al"/></g><g id="N"><use transform="matrix(0.05,0,0,0.05,0,0)" xlink:href="#aa"/><use transform="matrix(0.05,0,0,0.05,5.95,0)" xlink:href="#ab"/><use transform="matrix(0.05,0,0,0.05,15.949999999999998,0)" xlink:href="#V"/><use transform="matrix(0.05,0,0,0.05,25.950000000000003,0)" xlink:href="#ai"/><use transform="matrix(0.05,0,0,0.05,29.899999999999995,0)" xlink:href="#aa"/><use transform="matrix(0.05,0,0,0.05,35.85,0)" xlink:href="#ab"/><use transform="matrix(0.05,0,0,0.05,45.85,0)" xlink:href="#ak"/><use transform="matrix(0.05,0,0,0.05,54.85,0)" xlink:href="#am"/></g><path d="M206 0h-36l-40-164L89 0H53L-1-190h32L70-26l43-164h34l41 164 42-164h31" id="aA"/><g id="O"><use transform="matrix(0.05,0,0,0.05,0,0)" xlink:href="#aA"/><use transform="matrix(0.05,0,0,0.05,12.950000000000001,0)" xlink:href="#ab"/><use transform="matrix(0.05,0,0,0.05,22.950000000000003,0)" xlink:href="#U"/></g><path d="M205 0l-28-72H64L36 0H1l101-248h38L239 0h-34zm-38-99l-47-123c-12 45-31 82-46 123h93" id="aB"/><path d="M30-248c87 1 191-15 191 75 0 78-77 80-158 76V0H30v-248zm33 125c57 0 124 11 124-50 0-59-68-47-124-48v98" id="aC"/><path d="M33 0v-248h34V0H33" id="aD"/><g id="P"><use transform="matrix(0.05,0,0,0.05,0,0)" xlink:href="#aB"/><use transform="matrix(0.05,0,0,0.05,12,0)" xlink:href="#aC"/><use transform="matrix(0.05,0,0,0.05,24,0)" xlink:href="#aD"/></g><g id="Q"><use transform="matrix(0.05,0,0,0.05,0,0)" xlink:href="#aw"/><use transform="matrix(0.05,0,0,0.05,5.95,0)" xlink:href="#aC"/><use transform="matrix(0.05,0,0,0.05,17.95,0)" xlink:href="#ae"/><use transform="matrix(0.05,0,0,0.05,27.950000000000003,0)" xlink:href="#ac"/><use transform="matrix(0.05,0,0,0.05,36.95,0)" xlink:href="#am"/><use transform="matrix(0.05,0,0,0.05,41.95,0)" xlink:href="#ao"/><use transform="matrix(0.05,0,0,0.05,56.900000000000006,0)" xlink:href="#ab"/><use transform="matrix(0.05,0,0,0.05,66.9,0)" xlink:href="#ac"/><use transform="matrix(0.05,0,0,0.05,75.9,0)" xlink:href="#ac"/><use transform="matrix(0.05,0,0,0.05,84.9,0)" xlink:href="#S"/><use transform="matrix(0.05,0,0,0.05,94.9,0)" xlink:href="#aj"/><use transform="matrix(0.05,0,0,0.05,104.9,0)" xlink:href="#ab"/><use transform="matrix(0.05,0,0,0.05,114.9,0)" xlink:href="#ay"/></g></defs></g></svg>